# xmcd
#
# Track frame offsets: 
#        150
#        6143
#        22200
#        36472
#        50489
#        70064
#        91184
#        113872
#        136349
#        152636
#        170284
#        188334
#        207672
#        229576
#
# Disc length: 3268 seconds
#
# Revision: 0
# Processed by: cddbd v1.5.2PL0 Copyright (c) Steve Scherf et al.
# Submitted via: ExactAudioCopy v1.0b3
#
DISCID=b60cc20e
DTITLE=Charlie A'Court - Triumph and Disaster
DYEAR=2012
DGENRE=Blues
TTITLE0=Triumph and Disaster
TTITLE1=Sun Is Gonna Shine
TTITLE2=I Gotta Run
TTITLE3=The World Around Me
TTITLE4=Chains of Gold
TTITLE5=I Hope I Get to Heaven
TTITLE6=July Josephine
TTITLE7=A Change Is Gonna Come
TTITLE8=High Heeled Heartbreaker
TTITLE9=Up There I Can Fly
TTITLE10=I'm Sorry
TTITLE11=In Your Heart Tonight
TTITLE12=Toast and Jam
TTITLE13=Wolf Who Cried Boy
EXTD=
EXTT0=
EXTT1=
EXTT2=
EXTT3=
EXTT4=
EXTT5=
EXTT6=
EXTT7=
EXTT8=
EXTT9=
EXTT10=
EXTT11=
EXTT12=
EXTT13=
PLAYORDER=
